<?xml version="1.0" encoding="UTF-8" standalone="no"?>
<svg
   xmlns:dc="http://purl.org/dc/elements/1.1/"
   xmlns:cc="http://creativecommons.org/ns#"
   xmlns:rdf="http://www.w3.org/1999/02/22-rdf-syntax-ns#"
   xmlns:svg="http://www.w3.org/2000/svg"
   xmlns="http://www.w3.org/2000/svg"
   version="1.1"
   id="svg2"
   viewBox="0 0 744.09448819 1052.3622047"
   height="297mm"
   width="210mm">
  <defs
     id="defs4" />
  <metadata
     id="metadata7">
    <rdf:RDF>
      <cc:Work
         rdf:about="">
        <dc:format>image/svg+xml</dc:format>
        <dc:type
           rdf:resource="http://purl.org/dc/dcmitype/StillImage" />
        <dc:title></dc:title>
      </cc:Work>
    </rdf:RDF>
  </metadata>
  <g
     id="layer1">
    <g
       transform="matrix(1.25,0,0,1.2499999,-702.62497,-24.93752)"
       id="g3379"
       style="overflow:visible;fill-rule:evenodd;stroke-width:0.50099999;stroke-linejoin:bevel">
      <g
         style="font-size:16px;font-family:'Times New Roman';fill:none;stroke:#000000"
         id="Document"
         font-size="16"
         transform="scale(1,-1)">
        <g
           id="Spread"
           transform="translate(0,-841.891)">
          <g
             id="Layer 1">
            <g
               style="stroke:none;stroke-linecap:round;stroke-linejoin:round"
               id="Group">
              <path
                 style="fill:#cccccc;stroke-width:0.537;stroke-miterlimit:79.84031677;marker-start:none;marker-end:none"
                 d="m 679.135,668.493 c 52.36,92.697 170.097,125.443 262.81,73.09 92.705,-52.351 125.455,-170.076 73.095,-262.769 -9.22,-16.328 -20.471,-30.795 -33.251,-43.259 l -269.404,0 c -61.172,59.607 -77.219,155.097 -33.25,232.938 z"
                 stroke-miterlimit="79.8403193612775"
                 id="path3344" />
              <path
                 style="fill:#ffffff;stroke-width:0.537;stroke-miterlimit:79.84031677;marker-start:none;marker-end:none"
                 d="m 676.017,674.517 c 52.36,92.697 170.097,125.438 262.806,73.09 92.707,-52.351 125.457,-170.077 73.097,-262.77 -9.22,-16.329 -20.468,-30.794 -33.249,-43.258 l -269.404,0 c -61.171,59.607 -77.219,155.096 -33.25,232.938 z"
                 stroke-miterlimit="79.8403193612775"
                 id="path3346" />
              <path
                 style="fill:#ff7ffe;stroke-width:0.36500001;stroke-miterlimit:79.84031677;marker-start:none;marker-end:none"
                 d="m 734.545,558.962 c -32.914,32.906 -32.914,86.321 0,119.226 29.807,29.804 76.441,32.613 109.426,8.432 -3.435,-2.52 -6.718,-5.329 -9.824,-8.432 -4.77,-4.77 -8.848,-9.972 -12.235,-15.477 -20.136,12.672 -47.079,10.245 -64.607,-7.279 -20.341,-20.345 -20.341,-53.363 0,-73.712 17.528,-17.524 44.471,-19.948 64.607,-7.279 3.387,-5.511 7.465,-10.707 12.235,-15.479 3.106,-3.101 6.389,-5.914 9.824,-8.426 -32.985,-24.185 -79.619,-21.381 -109.426,8.426 z m 122.368,22.758 c -6.213,6.211 -10.526,13.603 -12.942,21.452 3.086,10.021 3.086,20.787 0,30.807 2.416,7.849 6.729,15.245 12.942,21.453 2.816,2.812 5.874,5.241 9.113,7.279 16.593,-26.975 16.593,-61.296 0,-88.27 -3.239,2.038 -6.297,4.461 -9.113,7.279 z"
                 stroke-miterlimit="79.8403193612775"
                 id="path3348" />
              <path
                 style="fill:#ff8787;stroke-width:0.36500001;stroke-miterlimit:79.84031677;marker-start:none;marker-end:none"
                 d="m 834.147,558.962 c -4.77,4.772 -8.848,9.968 -12.235,15.479 3.234,2.038 6.297,4.461 9.117,7.279 6.204,6.211 10.522,13.603 12.942,21.452 2.416,-7.849 6.729,-15.241 12.942,-21.452 2.816,-2.818 5.874,-5.241 9.113,-7.279 -3.387,-5.511 -7.468,-10.707 -12.236,-15.479 -3.105,-3.101 -6.392,-5.914 -9.819,-8.426 -3.435,2.512 -6.718,5.325 -9.824,8.426 z"
                 stroke-miterlimit="79.8403193612775"
                 id="path3350" />
              <path
                 style="fill:#7fff81;stroke-width:0.34099999;stroke-miterlimit:79.84031677;marker-start:none;marker-end:none"
                 d="m 841.664,619.609 c 13.314,-0.646 26.845,4.105 37.01,14.266 10.109,10.112 14.867,23.555 14.274,36.806 10.462,0.164 20.971,-2.802 29.984,-8.893 -1.513,-17.977 -9.142,-35.534 -22.89,-49.282 -13.827,-13.828 -31.516,-21.465 -49.606,-22.913 -6.055,9.036 -8.978,19.551 -8.772,30.016 z m -53.568,-7.103 c -30.891,30.895 -30.891,81.04 0,111.935 30.899,30.887 81.051,30.887 111.946,0 7.341,-7.344 12.938,-15.77 16.791,-24.767 -12.007,3.398 -24.619,4.085 -36.875,2.066 -0.421,0.449 -0.846,0.895 -1.284,1.332 -19.105,19.098 -50.104,19.098 -69.205,0 -19.102,-19.101 -19.102,-50.096 0,-69.197 0.389,-0.39 0.786,-0.775 1.184,-1.152 -2.068,-12.243 -1.429,-24.859 1.918,-36.878 -8.889,3.848 -17.212,9.402 -24.475,16.661 z"
                 stroke-miterlimit="79.8403193612775"
                 id="path3352" />
              <path
                 style="fill:#ffd640;stroke-width:0.34099999;stroke-miterlimit:79.84031677;marker-start:none;marker-end:none"
                 d="m 812.571,595.845 c -3.347,12.019 -3.986,24.635 -1.918,36.878 8.763,-8.194 19.811,-12.569 31.011,-13.114 -0.206,-10.465 2.717,-20.98 8.772,-30.016 -12.829,-1.028 -25.863,1.059 -37.865,6.252 z"
                 stroke-miterlimit="79.8403193612775"
                 id="path3354" />
              <path
                 style="fill:#bfc0ff;stroke-width:0.36500001;stroke-miterlimit:79.84031677;marker-start:none;marker-end:none"
                 d="m 834.147,558.962 c -32.909,32.906 -32.909,86.321 0,119.226 32.914,32.906 86.333,32.906 119.247,0 32.909,-32.905 32.909,-86.32 0,-119.226 -32.914,-32.905 -86.333,-32.905 -119.247,0 z m 96.486,22.758 c 20.345,20.349 20.345,53.367 0,73.712 -20.35,20.341 -53.372,20.341 -73.72,0 -20.346,-20.345 -20.346,-53.363 0,-73.712 20.348,-20.342 53.37,-20.342 73.72,0 z"
                 stroke-miterlimit="79.8403193612775"
                 id="path3356" />
              <path
                 style="fill:#ff7ffe;stroke-width:0.36500001;stroke-miterlimit:79.84031677;marker-start:none;marker-end:none"
                 d="m 831.029,655.432 c -2.82,2.812 -7.496,6.396 -10.734,8.435 3.391,5.505 7.472,10.71 12.239,15.477 3.106,3.103 6.389,5.912 9.82,8.427 3.434,-2.515 8.331,-6.48 11.436,-9.583 6.839,-6.986 12.661,-15.489 14.347,-19.104 -3.239,-2.035 -6.301,-4.463 -9.117,-7.276 -6.209,-6.212 -11.642,-13.667 -14.062,-21.517 -1.689,7.48 -7.199,18.664 -13.929,25.141 z"
                 stroke-miterlimit="79.8403193612775"
                 id="path3358" />
              <g
                 style="fill:#bf00bd;fill-rule:nonzero;stroke-width:2.47600007;stroke-miterlimit:79.84031677"
                 id="Group_1"
                 stroke-miterlimit="79.8403193612775">
                <path
                   style="marker-start:none;marker-end:none"
                   d="m 711.936,524.861 21.974,0 c 3.142,-0.024 5.891,-0.546 8.243,-1.564 2.351,-1.02 4.31,-2.393 5.874,-4.126 1.566,-1.729 2.738,-3.672 3.52,-5.827 0.778,-2.158 1.172,-4.386 1.172,-6.685 0,-2.299 -0.394,-4.53 -1.172,-6.702 -0.782,-2.162 -1.954,-4.121 -3.52,-5.863 -1.564,-1.74 -3.523,-3.129 -5.874,-4.156 -2.352,-1.028 -5.101,-1.553 -8.243,-1.581 l -13.66,0 0,-1.782 31.774,-28.797 3.163,0 -31.67,28.604 10.393,0 c 3.492,0.025 6.537,0.602 9.149,1.734 2.613,1.131 4.788,2.66 6.525,4.582 1.738,1.922 3.043,4.089 3.909,6.493 0.867,2.403 1.301,4.896 1.297,7.468 0.004,2.553 -0.43,5.029 -1.297,7.439 -0.866,2.412 -2.171,4.588 -3.909,6.53 -1.737,1.946 -3.912,3.491 -6.525,4.638 -2.612,1.152 -5.657,1.738 -9.149,1.766 l -24.045,0 0,-69.254 2.071,0 0,67.083 z"
                   id="path3361" />
                <path
                   style="marker-start:none;marker-end:none"
                   d="m 766.555,486.374 c 0.101,1.44 0.301,2.866 0.61,4.277 0.305,1.413 0.73,2.79 1.272,4.13 1.087,2.801 2.64,5.305 4.654,7.516 2.015,2.215 4.499,3.961 7.449,5.249 2.949,1.288 6.368,1.95 10.261,1.975 4.61,-0.032 8.667,-1.02 12.174,-2.966 3.504,-1.946 6.297,-4.652 8.372,-8.11 2.074,-3.468 3.274,-7.489 3.599,-12.071 l -48.391,0 z m 50.369,-1.878 c 0.009,3.9 -0.605,7.493 -1.842,10.771 -1.235,3.278 -3.009,6.131 -5.321,8.555 -2.307,2.424 -5.064,4.306 -8.266,5.642 -3.207,1.337 -6.77,2.018 -10.694,2.035 -4.222,-0.028 -7.93,-0.747 -11.125,-2.156 -3.193,-1.404 -5.882,-3.306 -8.065,-5.713 -2.182,-2.404 -3.868,-5.125 -5.056,-8.155 -0.687,-1.737 -1.188,-3.531 -1.505,-5.376 -0.316,-1.851 -0.473,-3.717 -0.469,-5.603 -0.004,-1.934 0.153,-3.832 0.469,-5.69 0.317,-1.854 0.818,-3.656 1.505,-5.389 1.188,-3.034 2.874,-5.751 5.056,-8.154 2.183,-2.408 4.872,-4.311 8.065,-5.715 3.195,-1.408 6.903,-2.123 11.125,-2.159 3.643,0.004 7.01,0.594 10.096,1.761 3.09,1.169 5.802,2.898 8.142,5.185 2.34,2.292 4.21,5.12 5.61,8.488 l -2.078,0 c -1.365,-2.97 -3.131,-5.45 -5.294,-7.444 -2.159,-1.994 -4.635,-3.495 -7.423,-4.498 -2.79,-1.007 -5.807,-1.51 -9.053,-1.51 -3.893,0.024 -7.312,0.687 -10.261,1.974 -2.95,1.285 -5.434,3.039 -7.449,5.249 -2.014,2.212 -3.567,4.716 -4.654,7.513 -0.638,1.637 -1.115,3.335 -1.424,5.084 -0.305,1.75 -0.458,3.52 -0.458,5.305 l 50.369,0 z"
                   id="path3363" />
                <path
                   style="marker-start:none;marker-end:none"
                   d="m 831.037,526.936 0,-69.158 1.974,0 0,69.158 -1.974,0 z"
                   id="path3365" />
                <path
                   style="marker-start:none;marker-end:none"
                   d="m 852.029,457.778 0,53.725 1.978,0 0,-53.725 -1.978,0 z m 0.987,67.08 c -0.558,-0.013 -1.023,-0.21 -1.397,-0.582 -0.373,-0.374 -0.565,-0.835 -0.582,-1.397 0.017,-0.558 0.209,-1.023 0.582,-1.397 0.374,-0.372 0.839,-0.565 1.397,-0.582 0.562,0.017 1.028,0.21 1.397,0.582 0.372,0.374 0.565,0.839 0.585,1.397 -0.02,0.562 -0.213,1.023 -0.585,1.397 -0.369,0.372 -0.835,0.569 -1.397,0.582 z"
                   id="path3367" />
                <path
                   style="marker-start:none;marker-end:none"
                   d="m 875.456,457.778 0,29.387 c 0.068,3.6 0.578,6.714 1.537,9.337 0.955,2.621 2.259,4.82 3.908,6.593 2.071,2.167 4.467,3.769 7.191,4.796 2.725,1.031 5.542,1.545 8.451,1.537 4.719,-0.008 8.677,-0.979 11.862,-2.918 3.183,-1.933 5.582,-4.622 7.195,-8.054 1.613,-3.434 2.421,-7.395 2.425,-11.885 l 0,-28.793 1.978,0 0,28.793 c -0.004,3.627 -0.51,6.958 -1.521,9.988 -1.011,3.029 -2.504,5.658 -4.482,7.881 -1.975,2.227 -4.415,3.945 -7.32,5.156 -2.901,1.212 -6.248,1.815 -10.036,1.806 -3.255,0.009 -6.372,-0.549 -9.342,-1.681 -2.973,-1.128 -5.57,-2.874 -7.786,-5.245 -0.986,-1.039 -1.837,-2.223 -2.535,-3.548 -0.706,-1.323 -1.277,-2.78 -1.722,-4.366 l 0.101,14.74 -1.978,0 0,-53.524 2.074,0 z"
                   id="path3369" />
                <path
                   style="marker-start:none;marker-end:none"
                   d="m 974.317,511.306 -18.997,-24.242 -18.997,24.242 -2.476,0 20.185,-25.923 -21.469,-27.605 2.572,0 20.185,26.02 20.284,-26.02 2.472,0 -21.468,27.605 20.184,25.923 -2.475,0 z"
                   id="path3371" />
              </g>
              <path
                 style="fill:#bf00bd;fill-rule:nonzero;stroke-width:2.47600007;stroke-miterlimit:79.84031677;marker-start:none;marker-end:none"
                 d="m 956.524,486.474 -141.586,0 0,-1.978 141.586,0 0,1.978 z"
                 stroke-miterlimit="79.8403193612775"
                 id="path3373" />
            </g>
          </g>
        </g>
      </g>
    </g>
  </g>
</svg>
